# xmcd
#
# Track frame offsets:
#	150
#	17322
#	33832
#	56515
#	76607
#	100270
#	117985
#	128757
#	144872
#	170170
#	190137
#	203532
#	222262
#	237710
#	259247
#	273232
#
# Disc length: 3887
#
# Revision: 2
# Processed by: cddbd v1.5.1PL0 Copyright (c) Steve Scherf et al.
# Submitted via: EasyCDDAExtractor 5.1.0
# Normalized: r1:DSETVAR1
#
DISCID=d50f2d10
DTITLE=Various Artist - Legacy's Rythm and Soul
DYEAR=1900
DGENRE=R&B
TTITLE0=Cheryl Lynn - Got To Be Real
TTITLE1=The Emotions - Best of My Love
TTITLE2=Heatwave - Boogie Nights
TTITLE3=Johnnie Taylor - Disco Lady
TTITLE4=Boz Scaggs - Low Down
TTITLE5=Labelle - Lady Marmalade
TTITLE6=Walter Jackson - Tear For Tear
TTITLE7=Peaches and Herb - The Ten Commandments of Love
TTITLE8=Isley Brothers - Between the Sheets
TTITLE9=Earth,Wind,& Fire - After the Love Is Gone
TTITLE10=The Three Degrees - When Will I See You Again
TTITLE11=Deniece Williams - It's Gonna Take A Miracle
TTITLE12=Harold Melvin and The Blue Notes - If You Don't Know Me By Now
TTITLE13=Bunny Sigler - Shake Your Booty
TTITLE14=The O'Jays - Back Stabbers
TTITLE15=Tyrone Davis - How Sweet It Is (To be loved by you)
EXTD=
EXTT0=\n
EXTT1=\n
EXTT2=\n
EXTT3=\n
EXTT4=\n
EXTT5=\n
EXTT6=\n
EXTT7=\n
EXTT8=\n
EXTT9=\n
EXTT10=\n
EXTT11=\n
EXTT12=\n
EXTT13=\n
EXTT14=\n
EXTT15=\n
PLAYORDER=
